<mxfile host="app.diagrams.net" modified="2024-05-19T16:27:55.879Z" agent="Mozilla/5.0 (Windows NT 10.0; Win64; x64) AppleWebKit/537.36 (KHTML, like Gecko) Chrome/123.0.0.0 Safari/537.36 OPR/109.0.0.0" etag="cxJ5emGoHngPPbSdNY62" version="24.4.4" type="github">
  <diagram id="C5RBs43oDa-KdzZeNtuy" name="Page-1">
    <mxGraphModel dx="2472" dy="2194" grid="1" gridSize="10" guides="1" tooltips="1" connect="1" arrows="1" fold="1" page="1" pageScale="1" pageWidth="827" pageHeight="1169" math="0" shadow="0">
      <root>
        <mxCell id="WIyWlLk6GJQsqaUBKTNV-0" />
        <mxCell id="WIyWlLk6GJQsqaUBKTNV-1" parent="WIyWlLk6GJQsqaUBKTNV-0" />
        <mxCell id="65znSDPLtXBS6jXFIMLQ-68" style="edgeStyle=none;curved=1;rounded=0;orthogonalLoop=1;jettySize=auto;html=1;entryX=0.5;entryY=1;entryDx=0;entryDy=0;fontSize=12;startSize=8;endSize=8;" edge="1" parent="WIyWlLk6GJQsqaUBKTNV-1" source="65znSDPLtXBS6jXFIMLQ-0" target="65znSDPLtXBS6jXFIMLQ-9">
          <mxGeometry relative="1" as="geometry" />
        </mxCell>
        <mxCell id="65znSDPLtXBS6jXFIMLQ-76" value="1" style="edgeLabel;html=1;align=center;verticalAlign=middle;resizable=0;points=[];fontSize=12;" vertex="1" connectable="0" parent="65znSDPLtXBS6jXFIMLQ-68">
          <mxGeometry x="-0.3905" y="2" relative="1" as="geometry">
            <mxPoint as="offset" />
          </mxGeometry>
        </mxCell>
        <mxCell id="65znSDPLtXBS6jXFIMLQ-69" style="edgeStyle=none;curved=1;rounded=0;orthogonalLoop=1;jettySize=auto;html=1;entryX=0.5;entryY=0;entryDx=0;entryDy=0;fontSize=12;startSize=8;endSize=8;" edge="1" parent="WIyWlLk6GJQsqaUBKTNV-1" source="65znSDPLtXBS6jXFIMLQ-0" target="65znSDPLtXBS6jXFIMLQ-12">
          <mxGeometry relative="1" as="geometry" />
        </mxCell>
        <mxCell id="65znSDPLtXBS6jXFIMLQ-91" value="1" style="edgeLabel;html=1;align=center;verticalAlign=middle;resizable=0;points=[];fontSize=12;" vertex="1" connectable="0" parent="65znSDPLtXBS6jXFIMLQ-69">
          <mxGeometry x="-0.575" y="3" relative="1" as="geometry">
            <mxPoint as="offset" />
          </mxGeometry>
        </mxCell>
        <mxCell id="65znSDPLtXBS6jXFIMLQ-70" style="edgeStyle=none;curved=1;rounded=0;orthogonalLoop=1;jettySize=auto;html=1;entryX=0;entryY=0.5;entryDx=0;entryDy=0;fontSize=12;startSize=8;endSize=8;" edge="1" parent="WIyWlLk6GJQsqaUBKTNV-1" source="65znSDPLtXBS6jXFIMLQ-0" target="65znSDPLtXBS6jXFIMLQ-62">
          <mxGeometry relative="1" as="geometry" />
        </mxCell>
        <mxCell id="65znSDPLtXBS6jXFIMLQ-75" value="1" style="edgeLabel;html=1;align=center;verticalAlign=middle;resizable=0;points=[];fontSize=12;" vertex="1" connectable="0" parent="65znSDPLtXBS6jXFIMLQ-70">
          <mxGeometry x="-0.7127" y="6" relative="1" as="geometry">
            <mxPoint x="-1" as="offset" />
          </mxGeometry>
        </mxCell>
        <mxCell id="65znSDPLtXBS6jXFIMLQ-0" value="Aluno" style="rounded=0;whiteSpace=wrap;html=1;" vertex="1" parent="WIyWlLk6GJQsqaUBKTNV-1">
          <mxGeometry x="107" y="340" width="120" height="60" as="geometry" />
        </mxCell>
        <mxCell id="65znSDPLtXBS6jXFIMLQ-1" value="Curso" style="rounded=0;whiteSpace=wrap;html=1;" vertex="1" parent="WIyWlLk6GJQsqaUBKTNV-1">
          <mxGeometry x="107" y="90" width="120" height="60" as="geometry" />
        </mxCell>
        <mxCell id="65znSDPLtXBS6jXFIMLQ-3" value="HistÃ³rico Escolar" style="rounded=0;whiteSpace=wrap;html=1;" vertex="1" parent="WIyWlLk6GJQsqaUBKTNV-1">
          <mxGeometry x="107" y="620" width="120" height="60" as="geometry" />
        </mxCell>
        <mxCell id="65znSDPLtXBS6jXFIMLQ-53" style="edgeStyle=none;curved=1;rounded=0;orthogonalLoop=1;jettySize=auto;html=1;entryX=0.5;entryY=1;entryDx=0;entryDy=0;fontSize=12;startSize=8;endSize=8;" edge="1" parent="WIyWlLk6GJQsqaUBKTNV-1" source="65znSDPLtXBS6jXFIMLQ-4" target="65znSDPLtXBS6jXFIMLQ-50">
          <mxGeometry relative="1" as="geometry" />
        </mxCell>
        <mxCell id="65znSDPLtXBS6jXFIMLQ-87" value="1" style="edgeLabel;html=1;align=center;verticalAlign=middle;resizable=0;points=[];fontSize=12;" vertex="1" connectable="0" parent="65znSDPLtXBS6jXFIMLQ-53">
          <mxGeometry x="-0.2476" y="-3" relative="1" as="geometry">
            <mxPoint as="offset" />
          </mxGeometry>
        </mxCell>
        <mxCell id="65znSDPLtXBS6jXFIMLQ-55" style="edgeStyle=none;curved=1;rounded=0;orthogonalLoop=1;jettySize=auto;html=1;entryX=0;entryY=0.5;entryDx=0;entryDy=0;fontSize=12;startSize=8;endSize=8;" edge="1" parent="WIyWlLk6GJQsqaUBKTNV-1" source="65znSDPLtXBS6jXFIMLQ-4" target="65znSDPLtXBS6jXFIMLQ-54">
          <mxGeometry relative="1" as="geometry" />
        </mxCell>
        <mxCell id="65znSDPLtXBS6jXFIMLQ-89" value="1" style="edgeLabel;html=1;align=center;verticalAlign=middle;resizable=0;points=[];fontSize=12;" vertex="1" connectable="0" parent="65znSDPLtXBS6jXFIMLQ-55">
          <mxGeometry x="-0.7533" y="1" relative="1" as="geometry">
            <mxPoint as="offset" />
          </mxGeometry>
        </mxCell>
        <mxCell id="65znSDPLtXBS6jXFIMLQ-4" value="Professor" style="rounded=0;whiteSpace=wrap;html=1;" vertex="1" parent="WIyWlLk6GJQsqaUBKTNV-1">
          <mxGeometry x="610" y="350" width="120" height="60" as="geometry" />
        </mxCell>
        <mxCell id="65znSDPLtXBS6jXFIMLQ-41" style="edgeStyle=none;curved=1;rounded=0;orthogonalLoop=1;jettySize=auto;html=1;entryX=1;entryY=0.5;entryDx=0;entryDy=0;fontSize=12;startSize=8;endSize=8;" edge="1" parent="WIyWlLk6GJQsqaUBKTNV-1" source="65znSDPLtXBS6jXFIMLQ-6" target="65znSDPLtXBS6jXFIMLQ-31">
          <mxGeometry relative="1" as="geometry" />
        </mxCell>
        <mxCell id="65znSDPLtXBS6jXFIMLQ-82" value="N" style="edgeLabel;html=1;align=center;verticalAlign=middle;resizable=0;points=[];fontSize=12;" vertex="1" connectable="0" parent="65znSDPLtXBS6jXFIMLQ-41">
          <mxGeometry x="-0.4667" y="-3" relative="1" as="geometry">
            <mxPoint as="offset" />
          </mxGeometry>
        </mxCell>
        <mxCell id="65znSDPLtXBS6jXFIMLQ-6" value="Disciplina" style="rounded=0;whiteSpace=wrap;html=1;" vertex="1" parent="WIyWlLk6GJQsqaUBKTNV-1">
          <mxGeometry x="550" y="90" width="120" height="60" as="geometry" />
        </mxCell>
        <mxCell id="65znSDPLtXBS6jXFIMLQ-7" value="Departamento" style="rounded=0;whiteSpace=wrap;html=1;" vertex="1" parent="WIyWlLk6GJQsqaUBKTNV-1">
          <mxGeometry x="910" y="230" width="120" height="60" as="geometry" />
        </mxCell>
        <mxCell id="65znSDPLtXBS6jXFIMLQ-58" style="edgeStyle=none;curved=1;rounded=0;orthogonalLoop=1;jettySize=auto;html=1;entryX=0.5;entryY=1;entryDx=0;entryDy=0;fontSize=12;startSize=8;endSize=8;" edge="1" parent="WIyWlLk6GJQsqaUBKTNV-1" source="65znSDPLtXBS6jXFIMLQ-8" target="65znSDPLtXBS6jXFIMLQ-22">
          <mxGeometry relative="1" as="geometry" />
        </mxCell>
        <mxCell id="65znSDPLtXBS6jXFIMLQ-84" value="N" style="edgeLabel;html=1;align=center;verticalAlign=middle;resizable=0;points=[];fontSize=12;" vertex="1" connectable="0" parent="65znSDPLtXBS6jXFIMLQ-58">
          <mxGeometry x="-0.8395" y="4" relative="1" as="geometry">
            <mxPoint y="-1" as="offset" />
          </mxGeometry>
        </mxCell>
        <mxCell id="65znSDPLtXBS6jXFIMLQ-61" style="edgeStyle=none;curved=1;rounded=0;orthogonalLoop=1;jettySize=auto;html=1;entryX=0;entryY=0.5;entryDx=0;entryDy=0;fontSize=12;startSize=8;endSize=8;" edge="1" parent="WIyWlLk6GJQsqaUBKTNV-1" source="65znSDPLtXBS6jXFIMLQ-8" target="65znSDPLtXBS6jXFIMLQ-59">
          <mxGeometry relative="1" as="geometry" />
        </mxCell>
        <mxCell id="65znSDPLtXBS6jXFIMLQ-93" value="N" style="edgeLabel;html=1;align=center;verticalAlign=middle;resizable=0;points=[];fontSize=12;" vertex="1" connectable="0" parent="65znSDPLtXBS6jXFIMLQ-61">
          <mxGeometry x="-0.7156" y="1" relative="1" as="geometry">
            <mxPoint as="offset" />
          </mxGeometry>
        </mxCell>
        <mxCell id="65znSDPLtXBS6jXFIMLQ-8" value="Turmas" style="rounded=0;whiteSpace=wrap;html=1;" vertex="1" parent="WIyWlLk6GJQsqaUBKTNV-1">
          <mxGeometry x="360" y="512.5" width="120" height="65" as="geometry" />
        </mxCell>
        <mxCell id="65znSDPLtXBS6jXFIMLQ-11" style="edgeStyle=none;curved=1;rounded=0;orthogonalLoop=1;jettySize=auto;html=1;fontSize=12;startSize=8;endSize=8;" edge="1" parent="WIyWlLk6GJQsqaUBKTNV-1" source="65znSDPLtXBS6jXFIMLQ-9" target="65znSDPLtXBS6jXFIMLQ-1">
          <mxGeometry relative="1" as="geometry" />
        </mxCell>
        <mxCell id="65znSDPLtXBS6jXFIMLQ-77" value="N" style="edgeLabel;html=1;align=center;verticalAlign=middle;resizable=0;points=[];fontSize=12;" vertex="1" connectable="0" parent="65znSDPLtXBS6jXFIMLQ-11">
          <mxGeometry x="0.32" y="-3" relative="1" as="geometry">
            <mxPoint as="offset" />
          </mxGeometry>
        </mxCell>
        <mxCell id="65znSDPLtXBS6jXFIMLQ-9" value="Matriculado" style="rhombus;whiteSpace=wrap;html=1;" vertex="1" parent="WIyWlLk6GJQsqaUBKTNV-1">
          <mxGeometry x="134" y="200" width="66" height="70" as="geometry" />
        </mxCell>
        <mxCell id="65znSDPLtXBS6jXFIMLQ-27" style="edgeStyle=none;curved=1;rounded=0;orthogonalLoop=1;jettySize=auto;html=1;entryX=0.5;entryY=0;entryDx=0;entryDy=0;fontSize=12;startSize=8;endSize=8;" edge="1" parent="WIyWlLk6GJQsqaUBKTNV-1" source="65znSDPLtXBS6jXFIMLQ-12" target="65znSDPLtXBS6jXFIMLQ-3">
          <mxGeometry relative="1" as="geometry" />
        </mxCell>
        <mxCell id="65znSDPLtXBS6jXFIMLQ-90" value="N" style="edgeLabel;html=1;align=center;verticalAlign=middle;resizable=0;points=[];fontSize=12;" vertex="1" connectable="0" parent="65znSDPLtXBS6jXFIMLQ-27">
          <mxGeometry x="0.0667" y="1" relative="1" as="geometry">
            <mxPoint as="offset" />
          </mxGeometry>
        </mxCell>
        <mxCell id="65znSDPLtXBS6jXFIMLQ-12" value="Possui" style="rhombus;whiteSpace=wrap;html=1;" vertex="1" parent="WIyWlLk6GJQsqaUBKTNV-1">
          <mxGeometry x="127" y="480" width="80" height="80" as="geometry" />
        </mxCell>
        <mxCell id="65znSDPLtXBS6jXFIMLQ-57" style="edgeStyle=none;curved=1;rounded=0;orthogonalLoop=1;jettySize=auto;html=1;entryX=0;entryY=1;entryDx=0;entryDy=0;fontSize=12;startSize=8;endSize=8;" edge="1" parent="WIyWlLk6GJQsqaUBKTNV-1" source="65znSDPLtXBS6jXFIMLQ-22" target="65znSDPLtXBS6jXFIMLQ-6">
          <mxGeometry relative="1" as="geometry" />
        </mxCell>
        <mxCell id="65znSDPLtXBS6jXFIMLQ-85" value="1" style="edgeLabel;html=1;align=center;verticalAlign=middle;resizable=0;points=[];fontSize=12;" vertex="1" connectable="0" parent="65znSDPLtXBS6jXFIMLQ-57">
          <mxGeometry x="0.4533" y="2" relative="1" as="geometry">
            <mxPoint as="offset" />
          </mxGeometry>
        </mxCell>
        <mxCell id="65znSDPLtXBS6jXFIMLQ-22" value="Oferecida&lt;div&gt;em&lt;/div&gt;" style="rhombus;whiteSpace=wrap;html=1;" vertex="1" parent="WIyWlLk6GJQsqaUBKTNV-1">
          <mxGeometry x="510" y="200" width="80" height="80" as="geometry" />
        </mxCell>
        <mxCell id="65znSDPLtXBS6jXFIMLQ-32" style="edgeStyle=none;curved=1;rounded=0;orthogonalLoop=1;jettySize=auto;html=1;entryX=1;entryY=0.5;entryDx=0;entryDy=0;fontSize=12;startSize=8;endSize=8;" edge="1" parent="WIyWlLk6GJQsqaUBKTNV-1" source="65znSDPLtXBS6jXFIMLQ-31" target="65znSDPLtXBS6jXFIMLQ-1">
          <mxGeometry relative="1" as="geometry" />
        </mxCell>
        <mxCell id="65znSDPLtXBS6jXFIMLQ-31" value="Pertence" style="rhombus;whiteSpace=wrap;html=1;" vertex="1" parent="WIyWlLk6GJQsqaUBKTNV-1">
          <mxGeometry x="350" y="80" width="80" height="80" as="geometry" />
        </mxCell>
        <mxCell id="65znSDPLtXBS6jXFIMLQ-52" style="edgeStyle=none;curved=1;rounded=0;orthogonalLoop=1;jettySize=auto;html=1;entryX=1;entryY=1;entryDx=0;entryDy=0;fontSize=12;startSize=8;endSize=8;" edge="1" parent="WIyWlLk6GJQsqaUBKTNV-1" source="65znSDPLtXBS6jXFIMLQ-50" target="65znSDPLtXBS6jXFIMLQ-6">
          <mxGeometry relative="1" as="geometry" />
        </mxCell>
        <mxCell id="65znSDPLtXBS6jXFIMLQ-86" value="N" style="edgeLabel;html=1;align=center;verticalAlign=middle;resizable=0;points=[];fontSize=12;" vertex="1" connectable="0" parent="65znSDPLtXBS6jXFIMLQ-52">
          <mxGeometry x="0.0533" y="-5" relative="1" as="geometry">
            <mxPoint as="offset" />
          </mxGeometry>
        </mxCell>
        <mxCell id="65znSDPLtXBS6jXFIMLQ-50" value="Leciona" style="rhombus;whiteSpace=wrap;html=1;" vertex="1" parent="WIyWlLk6GJQsqaUBKTNV-1">
          <mxGeometry x="630" y="200" width="80" height="80" as="geometry" />
        </mxCell>
        <mxCell id="65znSDPLtXBS6jXFIMLQ-56" style="edgeStyle=none;curved=1;rounded=0;orthogonalLoop=1;jettySize=auto;html=1;fontSize=12;startSize=8;endSize=8;" edge="1" parent="WIyWlLk6GJQsqaUBKTNV-1" source="65znSDPLtXBS6jXFIMLQ-54" target="65znSDPLtXBS6jXFIMLQ-7">
          <mxGeometry relative="1" as="geometry" />
        </mxCell>
        <mxCell id="65znSDPLtXBS6jXFIMLQ-88" value="N" style="edgeLabel;html=1;align=center;verticalAlign=middle;resizable=0;points=[];fontSize=12;" vertex="1" connectable="0" parent="65znSDPLtXBS6jXFIMLQ-56">
          <mxGeometry x="0.0533" y="2" relative="1" as="geometry">
            <mxPoint as="offset" />
          </mxGeometry>
        </mxCell>
        <mxCell id="65znSDPLtXBS6jXFIMLQ-54" value="Vinculado" style="rhombus;whiteSpace=wrap;html=1;" vertex="1" parent="WIyWlLk6GJQsqaUBKTNV-1">
          <mxGeometry x="930" y="340" width="80" height="80" as="geometry" />
        </mxCell>
        <mxCell id="65znSDPLtXBS6jXFIMLQ-60" style="edgeStyle=none;curved=1;rounded=0;orthogonalLoop=1;jettySize=auto;html=1;entryX=0.5;entryY=1;entryDx=0;entryDy=0;fontSize=12;startSize=8;endSize=8;" edge="1" parent="WIyWlLk6GJQsqaUBKTNV-1" source="65znSDPLtXBS6jXFIMLQ-59" target="65znSDPLtXBS6jXFIMLQ-4">
          <mxGeometry relative="1" as="geometry" />
        </mxCell>
        <mxCell id="65znSDPLtXBS6jXFIMLQ-92" value="1" style="edgeLabel;html=1;align=center;verticalAlign=middle;resizable=0;points=[];fontSize=12;" vertex="1" connectable="0" parent="65znSDPLtXBS6jXFIMLQ-60">
          <mxGeometry x="0.3965" relative="1" as="geometry">
            <mxPoint as="offset" />
          </mxGeometry>
        </mxCell>
        <mxCell id="65znSDPLtXBS6jXFIMLQ-59" value="Tem" style="rhombus;whiteSpace=wrap;html=1;" vertex="1" parent="WIyWlLk6GJQsqaUBKTNV-1">
          <mxGeometry x="630" y="505" width="80" height="80" as="geometry" />
        </mxCell>
        <mxCell id="65znSDPLtXBS6jXFIMLQ-63" style="edgeStyle=none;curved=1;rounded=0;orthogonalLoop=1;jettySize=auto;html=1;entryX=0.25;entryY=0;entryDx=0;entryDy=0;fontSize=12;startSize=8;endSize=8;" edge="1" parent="WIyWlLk6GJQsqaUBKTNV-1" source="65znSDPLtXBS6jXFIMLQ-62" target="65znSDPLtXBS6jXFIMLQ-8">
          <mxGeometry relative="1" as="geometry" />
        </mxCell>
        <mxCell id="65znSDPLtXBS6jXFIMLQ-74" value="N" style="edgeLabel;html=1;align=center;verticalAlign=middle;resizable=0;points=[];fontSize=12;" vertex="1" connectable="0" parent="65znSDPLtXBS6jXFIMLQ-63">
          <mxGeometry x="0.2748" y="-5" relative="1" as="geometry">
            <mxPoint as="offset" />
          </mxGeometry>
        </mxCell>
        <mxCell id="65znSDPLtXBS6jXFIMLQ-62" value="Matricula" style="rhombus;whiteSpace=wrap;html=1;" vertex="1" parent="WIyWlLk6GJQsqaUBKTNV-1">
          <mxGeometry x="350" y="330" width="80" height="80" as="geometry" />
        </mxCell>
        <mxCell id="65znSDPLtXBS6jXFIMLQ-81" value="N" style="text;html=1;align=center;verticalAlign=middle;resizable=0;points=[];autosize=1;strokeColor=none;fillColor=none;fontSize=16;" vertex="1" parent="WIyWlLk6GJQsqaUBKTNV-1">
          <mxGeometry x="234" y="101" width="40" height="30" as="geometry" />
        </mxCell>
        <mxCell id="65znSDPLtXBS6jXFIMLQ-96" style="edgeStyle=none;curved=1;rounded=0;orthogonalLoop=1;jettySize=auto;html=1;entryX=1;entryY=0;entryDx=0;entryDy=0;fontSize=12;startSize=8;endSize=8;" edge="1" parent="WIyWlLk6GJQsqaUBKTNV-1" source="65znSDPLtXBS6jXFIMLQ-95" target="65znSDPLtXBS6jXFIMLQ-1">
          <mxGeometry relative="1" as="geometry" />
        </mxCell>
        <mxCell id="65znSDPLtXBS6jXFIMLQ-95" value="ID_Curso(PK)" style="ellipse;whiteSpace=wrap;html=1;" vertex="1" parent="WIyWlLk6GJQsqaUBKTNV-1">
          <mxGeometry x="260" y="10" width="100" height="40" as="geometry" />
        </mxCell>
        <mxCell id="65znSDPLtXBS6jXFIMLQ-97" value="Nome_curso" style="ellipse;whiteSpace=wrap;html=1;" vertex="1" parent="WIyWlLk6GJQsqaUBKTNV-1">
          <mxGeometry x="170" y="-20" width="90" height="40" as="geometry" />
        </mxCell>
        <mxCell id="65znSDPLtXBS6jXFIMLQ-98" style="edgeStyle=none;curved=1;rounded=0;orthogonalLoop=1;jettySize=auto;html=1;entryX=0.881;entryY=0.039;entryDx=0;entryDy=0;entryPerimeter=0;fontSize=12;startSize=8;endSize=8;" edge="1" parent="WIyWlLk6GJQsqaUBKTNV-1" source="65znSDPLtXBS6jXFIMLQ-97" target="65znSDPLtXBS6jXFIMLQ-1">
          <mxGeometry relative="1" as="geometry" />
        </mxCell>
        <mxCell id="65znSDPLtXBS6jXFIMLQ-106" style="edgeStyle=none;curved=1;rounded=0;orthogonalLoop=1;jettySize=auto;html=1;entryX=0;entryY=0.75;entryDx=0;entryDy=0;fontSize=12;startSize=8;endSize=8;" edge="1" parent="WIyWlLk6GJQsqaUBKTNV-1" source="65znSDPLtXBS6jXFIMLQ-99" target="65znSDPLtXBS6jXFIMLQ-1">
          <mxGeometry relative="1" as="geometry" />
        </mxCell>
        <mxCell id="65znSDPLtXBS6jXFIMLQ-99" value="Descricao" style="ellipse;whiteSpace=wrap;html=1;" vertex="1" parent="WIyWlLk6GJQsqaUBKTNV-1">
          <mxGeometry x="-40" y="120" width="90" height="40" as="geometry" />
        </mxCell>
        <mxCell id="65znSDPLtXBS6jXFIMLQ-105" style="edgeStyle=none;curved=1;rounded=0;orthogonalLoop=1;jettySize=auto;html=1;entryX=0;entryY=0.25;entryDx=0;entryDy=0;fontSize=12;startSize=8;endSize=8;" edge="1" parent="WIyWlLk6GJQsqaUBKTNV-1" source="65znSDPLtXBS6jXFIMLQ-100" target="65znSDPLtXBS6jXFIMLQ-1">
          <mxGeometry relative="1" as="geometry" />
        </mxCell>
        <mxCell id="65znSDPLtXBS6jXFIMLQ-100" value="Departamento(FK)" style="ellipse;whiteSpace=wrap;html=1;" vertex="1" parent="WIyWlLk6GJQsqaUBKTNV-1">
          <mxGeometry x="-50" y="20" width="100" height="50" as="geometry" />
        </mxCell>
        <mxCell id="65znSDPLtXBS6jXFIMLQ-104" style="edgeStyle=none;curved=1;rounded=0;orthogonalLoop=1;jettySize=auto;html=1;entryX=0.5;entryY=0;entryDx=0;entryDy=0;fontSize=12;startSize=8;endSize=8;" edge="1" parent="WIyWlLk6GJQsqaUBKTNV-1" source="65znSDPLtXBS6jXFIMLQ-101" target="65znSDPLtXBS6jXFIMLQ-1">
          <mxGeometry relative="1" as="geometry" />
        </mxCell>
        <mxCell id="65znSDPLtXBS6jXFIMLQ-101" value="Num_max_Aluno" style="ellipse;whiteSpace=wrap;html=1;" vertex="1" parent="WIyWlLk6GJQsqaUBKTNV-1">
          <mxGeometry x="50" y="-25" width="100" height="50" as="geometry" />
        </mxCell>
        <mxCell id="65znSDPLtXBS6jXFIMLQ-103" style="edgeStyle=none;curved=1;rounded=0;orthogonalLoop=1;jettySize=auto;html=1;entryX=0.25;entryY=1;entryDx=0;entryDy=0;fontSize=12;startSize=8;endSize=8;" edge="1" parent="WIyWlLk6GJQsqaUBKTNV-1" source="65znSDPLtXBS6jXFIMLQ-102" target="65znSDPLtXBS6jXFIMLQ-1">
          <mxGeometry relative="1" as="geometry" />
        </mxCell>
        <mxCell id="65znSDPLtXBS6jXFIMLQ-102" value="Aluno_nov_ano" style="ellipse;whiteSpace=wrap;html=1;" vertex="1" parent="WIyWlLk6GJQsqaUBKTNV-1">
          <mxGeometry x="20" y="200" width="100" height="40" as="geometry" />
        </mxCell>
        <mxCell id="65znSDPLtXBS6jXFIMLQ-109" style="edgeStyle=none;curved=1;rounded=0;orthogonalLoop=1;jettySize=auto;html=1;entryX=0;entryY=0;entryDx=0;entryDy=0;fontSize=12;startSize=8;endSize=8;" edge="1" parent="WIyWlLk6GJQsqaUBKTNV-1" source="65znSDPLtXBS6jXFIMLQ-107" target="65znSDPLtXBS6jXFIMLQ-6">
          <mxGeometry relative="1" as="geometry" />
        </mxCell>
        <mxCell id="65znSDPLtXBS6jXFIMLQ-107" value="ID_Disciplina(PK)" style="ellipse;whiteSpace=wrap;html=1;" vertex="1" parent="WIyWlLk6GJQsqaUBKTNV-1">
          <mxGeometry x="430" y="10" width="110" height="35" as="geometry" />
        </mxCell>
        <mxCell id="65znSDPLtXBS6jXFIMLQ-110" style="edgeStyle=none;curved=1;rounded=0;orthogonalLoop=1;jettySize=auto;html=1;entryX=0.25;entryY=0;entryDx=0;entryDy=0;fontSize=12;startSize=8;endSize=8;" edge="1" parent="WIyWlLk6GJQsqaUBKTNV-1" source="65znSDPLtXBS6jXFIMLQ-108" target="65znSDPLtXBS6jXFIMLQ-6">
          <mxGeometry relative="1" as="geometry" />
        </mxCell>
        <mxCell id="65znSDPLtXBS6jXFIMLQ-108" value="Nome_disciplina" style="ellipse;whiteSpace=wrap;html=1;" vertex="1" parent="WIyWlLk6GJQsqaUBKTNV-1">
          <mxGeometry x="520" y="-30" width="100" height="40" as="geometry" />
        </mxCell>
        <mxCell id="65znSDPLtXBS6jXFIMLQ-112" style="edgeStyle=none;curved=1;rounded=0;orthogonalLoop=1;jettySize=auto;html=1;entryX=0.75;entryY=0;entryDx=0;entryDy=0;fontSize=12;startSize=8;endSize=8;" edge="1" parent="WIyWlLk6GJQsqaUBKTNV-1" source="65znSDPLtXBS6jXFIMLQ-111" target="65znSDPLtXBS6jXFIMLQ-6">
          <mxGeometry relative="1" as="geometry" />
        </mxCell>
        <mxCell id="65znSDPLtXBS6jXFIMLQ-111" value="Tipo_O/O" style="ellipse;whiteSpace=wrap;html=1;" vertex="1" parent="WIyWlLk6GJQsqaUBKTNV-1">
          <mxGeometry x="640" y="-30" width="90" height="40" as="geometry" />
        </mxCell>
        <mxCell id="65znSDPLtXBS6jXFIMLQ-114" style="edgeStyle=none;curved=1;rounded=0;orthogonalLoop=1;jettySize=auto;html=1;entryX=1;entryY=0.25;entryDx=0;entryDy=0;fontSize=12;startSize=8;endSize=8;" edge="1" parent="WIyWlLk6GJQsqaUBKTNV-1" source="65znSDPLtXBS6jXFIMLQ-113" target="65znSDPLtXBS6jXFIMLQ-6">
          <mxGeometry relative="1" as="geometry" />
        </mxCell>
        <mxCell id="65znSDPLtXBS6jXFIMLQ-113" value="ID_Curso(FK)" style="ellipse;whiteSpace=wrap;html=1;" vertex="1" parent="WIyWlLk6GJQsqaUBKTNV-1">
          <mxGeometry x="720" y="2.5" width="80" height="50" as="geometry" />
        </mxCell>
        <mxCell id="65znSDPLtXBS6jXFIMLQ-116" style="edgeStyle=none;curved=1;rounded=0;orthogonalLoop=1;jettySize=auto;html=1;entryX=1;entryY=0.5;entryDx=0;entryDy=0;fontSize=12;startSize=8;endSize=8;" edge="1" parent="WIyWlLk6GJQsqaUBKTNV-1" source="65znSDPLtXBS6jXFIMLQ-115" target="65znSDPLtXBS6jXFIMLQ-6">
          <mxGeometry relative="1" as="geometry" />
        </mxCell>
        <mxCell id="65znSDPLtXBS6jXFIMLQ-115" value="ID_Departamento" style="ellipse;whiteSpace=wrap;html=1;" vertex="1" parent="WIyWlLk6GJQsqaUBKTNV-1">
          <mxGeometry x="740" y="60" width="100" height="50" as="geometry" />
        </mxCell>
        <mxCell id="65znSDPLtXBS6jXFIMLQ-118" style="edgeStyle=none;curved=1;rounded=0;orthogonalLoop=1;jettySize=auto;html=1;fontSize=12;startSize=8;endSize=8;" edge="1" parent="WIyWlLk6GJQsqaUBKTNV-1" source="65znSDPLtXBS6jXFIMLQ-117" target="65znSDPLtXBS6jXFIMLQ-6">
          <mxGeometry relative="1" as="geometry" />
        </mxCell>
        <mxCell id="65znSDPLtXBS6jXFIMLQ-117" value="Num_max_Aluno" style="ellipse;whiteSpace=wrap;html=1;" vertex="1" parent="WIyWlLk6GJQsqaUBKTNV-1">
          <mxGeometry x="730" y="131" width="100" height="40" as="geometry" />
        </mxCell>
        <mxCell id="65znSDPLtXBS6jXFIMLQ-121" style="edgeStyle=none;curved=1;rounded=0;orthogonalLoop=1;jettySize=auto;html=1;entryX=0.75;entryY=0;entryDx=0;entryDy=0;fontSize=12;startSize=8;endSize=8;" edge="1" parent="WIyWlLk6GJQsqaUBKTNV-1" source="65znSDPLtXBS6jXFIMLQ-119" target="65znSDPLtXBS6jXFIMLQ-7">
          <mxGeometry relative="1" as="geometry" />
        </mxCell>
        <mxCell id="65znSDPLtXBS6jXFIMLQ-119" value="ID_Departamento(PK)" style="ellipse;whiteSpace=wrap;html=1;" vertex="1" parent="WIyWlLk6GJQsqaUBKTNV-1">
          <mxGeometry x="960" y="110" width="120" height="50" as="geometry" />
        </mxCell>
        <mxCell id="65znSDPLtXBS6jXFIMLQ-123" style="edgeStyle=none;curved=1;rounded=0;orthogonalLoop=1;jettySize=auto;html=1;fontSize=12;startSize=8;endSize=8;" edge="1" parent="WIyWlLk6GJQsqaUBKTNV-1" source="65znSDPLtXBS6jXFIMLQ-122" target="65znSDPLtXBS6jXFIMLQ-7">
          <mxGeometry relative="1" as="geometry" />
        </mxCell>
        <mxCell id="65znSDPLtXBS6jXFIMLQ-122" value="Nome_Departamento" style="ellipse;whiteSpace=wrap;html=1;" vertex="1" parent="WIyWlLk6GJQsqaUBKTNV-1">
          <mxGeometry x="1110" y="220" width="120" height="80" as="geometry" />
        </mxCell>
        <mxCell id="65znSDPLtXBS6jXFIMLQ-126" style="edgeStyle=none;curved=1;rounded=0;orthogonalLoop=1;jettySize=auto;html=1;entryX=0.75;entryY=0;entryDx=0;entryDy=0;fontSize=12;startSize=8;endSize=8;" edge="1" parent="WIyWlLk6GJQsqaUBKTNV-1" source="65znSDPLtXBS6jXFIMLQ-125" target="65znSDPLtXBS6jXFIMLQ-0">
          <mxGeometry relative="1" as="geometry" />
        </mxCell>
        <mxCell id="65znSDPLtXBS6jXFIMLQ-125" value="ID_Aluno(PK)" style="ellipse;whiteSpace=wrap;html=1;" vertex="1" parent="WIyWlLk6GJQsqaUBKTNV-1">
          <mxGeometry x="207" y="250" width="90" height="40" as="geometry" />
        </mxCell>
        <mxCell id="65znSDPLtXBS6jXFIMLQ-128" style="edgeStyle=none;curved=1;rounded=0;orthogonalLoop=1;jettySize=auto;html=1;entryX=0.25;entryY=0;entryDx=0;entryDy=0;fontSize=12;startSize=8;endSize=8;" edge="1" parent="WIyWlLk6GJQsqaUBKTNV-1" source="65znSDPLtXBS6jXFIMLQ-127" target="65znSDPLtXBS6jXFIMLQ-0">
          <mxGeometry relative="1" as="geometry" />
        </mxCell>
        <mxCell id="65znSDPLtXBS6jXFIMLQ-127" value="Nome_Aluno" style="ellipse;whiteSpace=wrap;html=1;" vertex="1" parent="WIyWlLk6GJQsqaUBKTNV-1">
          <mxGeometry x="10" y="260" width="90" height="40" as="geometry" />
        </mxCell>
        <mxCell id="65znSDPLtXBS6jXFIMLQ-130" style="edgeStyle=none;curved=1;rounded=0;orthogonalLoop=1;jettySize=auto;html=1;fontSize=12;startSize=8;endSize=8;" edge="1" parent="WIyWlLk6GJQsqaUBKTNV-1" source="65znSDPLtXBS6jXFIMLQ-129" target="65znSDPLtXBS6jXFIMLQ-0">
          <mxGeometry relative="1" as="geometry" />
        </mxCell>
        <mxCell id="65znSDPLtXBS6jXFIMLQ-129" value="Endereco" style="ellipse;whiteSpace=wrap;html=1;" vertex="1" parent="WIyWlLk6GJQsqaUBKTNV-1">
          <mxGeometry x="-45" y="350" width="90" height="40" as="geometry" />
        </mxCell>
        <mxCell id="65znSDPLtXBS6jXFIMLQ-132" style="edgeStyle=none;curved=1;rounded=0;orthogonalLoop=1;jettySize=auto;html=1;entryX=0;entryY=1;entryDx=0;entryDy=0;fontSize=12;startSize=8;endSize=8;" edge="1" parent="WIyWlLk6GJQsqaUBKTNV-1" source="65znSDPLtXBS6jXFIMLQ-131" target="65znSDPLtXBS6jXFIMLQ-0">
          <mxGeometry relative="1" as="geometry" />
        </mxCell>
        <mxCell id="65znSDPLtXBS6jXFIMLQ-131" value="Telefone" style="ellipse;whiteSpace=wrap;html=1;" vertex="1" parent="WIyWlLk6GJQsqaUBKTNV-1">
          <mxGeometry x="-20" y="410" width="70" height="60" as="geometry" />
        </mxCell>
        <mxCell id="65znSDPLtXBS6jXFIMLQ-134" style="edgeStyle=none;curved=1;rounded=0;orthogonalLoop=1;jettySize=auto;html=1;entryX=0;entryY=1;entryDx=0;entryDy=0;fontSize=12;startSize=8;endSize=8;" edge="1" parent="WIyWlLk6GJQsqaUBKTNV-1" source="65znSDPLtXBS6jXFIMLQ-133" target="65znSDPLtXBS6jXFIMLQ-131">
          <mxGeometry relative="1" as="geometry" />
        </mxCell>
        <mxCell id="65znSDPLtXBS6jXFIMLQ-133" value="DDD" style="ellipse;whiteSpace=wrap;html=1;" vertex="1" parent="WIyWlLk6GJQsqaUBKTNV-1">
          <mxGeometry x="-100" y="470" width="70" height="40" as="geometry" />
        </mxCell>
        <mxCell id="65znSDPLtXBS6jXFIMLQ-136" style="edgeStyle=none;curved=1;rounded=0;orthogonalLoop=1;jettySize=auto;html=1;fontSize=12;startSize=8;endSize=8;" edge="1" parent="WIyWlLk6GJQsqaUBKTNV-1" source="65znSDPLtXBS6jXFIMLQ-135" target="65znSDPLtXBS6jXFIMLQ-0">
          <mxGeometry relative="1" as="geometry" />
        </mxCell>
        <mxCell id="65znSDPLtXBS6jXFIMLQ-135" value="E-mail" style="ellipse;whiteSpace=wrap;html=1;" vertex="1" parent="WIyWlLk6GJQsqaUBKTNV-1">
          <mxGeometry x="200" y="430" width="70" height="50" as="geometry" />
        </mxCell>
        <mxCell id="65znSDPLtXBS6jXFIMLQ-138" style="edgeStyle=none;curved=1;rounded=0;orthogonalLoop=1;jettySize=auto;html=1;entryX=0;entryY=0.25;entryDx=0;entryDy=0;fontSize=12;startSize=8;endSize=8;" edge="1" parent="WIyWlLk6GJQsqaUBKTNV-1" source="65znSDPLtXBS6jXFIMLQ-137" target="65znSDPLtXBS6jXFIMLQ-3">
          <mxGeometry relative="1" as="geometry" />
        </mxCell>
        <mxCell id="65znSDPLtXBS6jXFIMLQ-137" value="ID_Historico(PK)" style="ellipse;whiteSpace=wrap;html=1;" vertex="1" parent="WIyWlLk6GJQsqaUBKTNV-1">
          <mxGeometry x="-60" y="620" width="100" height="40" as="geometry" />
        </mxCell>
        <mxCell id="65znSDPLtXBS6jXFIMLQ-140" style="edgeStyle=none;curved=1;rounded=0;orthogonalLoop=1;jettySize=auto;html=1;entryX=0;entryY=1;entryDx=0;entryDy=0;fontSize=12;startSize=8;endSize=8;" edge="1" parent="WIyWlLk6GJQsqaUBKTNV-1" source="65znSDPLtXBS6jXFIMLQ-139" target="65znSDPLtXBS6jXFIMLQ-3">
          <mxGeometry relative="1" as="geometry" />
        </mxCell>
        <mxCell id="65znSDPLtXBS6jXFIMLQ-139" value="ID_Aluno(FK)" style="ellipse;whiteSpace=wrap;html=1;" vertex="1" parent="WIyWlLk6GJQsqaUBKTNV-1">
          <mxGeometry x="-30" y="690" width="80" height="40" as="geometry" />
        </mxCell>
        <mxCell id="65znSDPLtXBS6jXFIMLQ-142" style="edgeStyle=none;curved=1;rounded=0;orthogonalLoop=1;jettySize=auto;html=1;entryX=0.25;entryY=0;entryDx=0;entryDy=0;fontSize=12;startSize=8;endSize=8;" edge="1" parent="WIyWlLk6GJQsqaUBKTNV-1" source="65znSDPLtXBS6jXFIMLQ-141" target="65znSDPLtXBS6jXFIMLQ-3">
          <mxGeometry relative="1" as="geometry" />
        </mxCell>
        <mxCell id="65znSDPLtXBS6jXFIMLQ-141" value="Detalhes" style="ellipse;whiteSpace=wrap;html=1;" vertex="1" parent="WIyWlLk6GJQsqaUBKTNV-1">
          <mxGeometry x="-10" y="550" width="80" height="40" as="geometry" />
        </mxCell>
        <mxCell id="65znSDPLtXBS6jXFIMLQ-144" style="edgeStyle=none;curved=1;rounded=0;orthogonalLoop=1;jettySize=auto;html=1;entryX=0.25;entryY=1;entryDx=0;entryDy=0;fontSize=12;startSize=8;endSize=8;" edge="1" parent="WIyWlLk6GJQsqaUBKTNV-1" source="65znSDPLtXBS6jXFIMLQ-143" target="65znSDPLtXBS6jXFIMLQ-3">
          <mxGeometry relative="1" as="geometry" />
        </mxCell>
        <mxCell id="65znSDPLtXBS6jXFIMLQ-143" value="ID_Disciplina(FK)" style="ellipse;whiteSpace=wrap;html=1;" vertex="1" parent="WIyWlLk6GJQsqaUBKTNV-1">
          <mxGeometry x="-40" y="760" width="100" height="40" as="geometry" />
        </mxCell>
        <mxCell id="65znSDPLtXBS6jXFIMLQ-146" style="edgeStyle=none;curved=1;rounded=0;orthogonalLoop=1;jettySize=auto;html=1;entryX=0.5;entryY=1;entryDx=0;entryDy=0;fontSize=12;startSize=8;endSize=8;" edge="1" parent="WIyWlLk6GJQsqaUBKTNV-1" source="65znSDPLtXBS6jXFIMLQ-145" target="65znSDPLtXBS6jXFIMLQ-3">
          <mxGeometry relative="1" as="geometry" />
        </mxCell>
        <mxCell id="65znSDPLtXBS6jXFIMLQ-145" value="Nota" style="ellipse;whiteSpace=wrap;html=1;" vertex="1" parent="WIyWlLk6GJQsqaUBKTNV-1">
          <mxGeometry x="75" y="760" width="50" height="30" as="geometry" />
        </mxCell>
        <mxCell id="65znSDPLtXBS6jXFIMLQ-148" style="edgeStyle=none;curved=1;rounded=0;orthogonalLoop=1;jettySize=auto;html=1;entryX=0.75;entryY=1;entryDx=0;entryDy=0;fontSize=12;startSize=8;endSize=8;" edge="1" parent="WIyWlLk6GJQsqaUBKTNV-1" source="65znSDPLtXBS6jXFIMLQ-147" target="65znSDPLtXBS6jXFIMLQ-3">
          <mxGeometry relative="1" as="geometry" />
        </mxCell>
        <mxCell id="65znSDPLtXBS6jXFIMLQ-147" value="Frequencia" style="ellipse;whiteSpace=wrap;html=1;" vertex="1" parent="WIyWlLk6GJQsqaUBKTNV-1">
          <mxGeometry x="120" y="800" width="80" height="40" as="geometry" />
        </mxCell>
        <mxCell id="65znSDPLtXBS6jXFIMLQ-150" style="edgeStyle=none;curved=1;rounded=0;orthogonalLoop=1;jettySize=auto;html=1;entryX=1;entryY=0.75;entryDx=0;entryDy=0;fontSize=12;startSize=8;endSize=8;" edge="1" parent="WIyWlLk6GJQsqaUBKTNV-1" source="65znSDPLtXBS6jXFIMLQ-149" target="65znSDPLtXBS6jXFIMLQ-3">
          <mxGeometry relative="1" as="geometry" />
        </mxCell>
        <mxCell id="65znSDPLtXBS6jXFIMLQ-149" value="Periodo_coletivo" style="ellipse;whiteSpace=wrap;html=1;" vertex="1" parent="WIyWlLk6GJQsqaUBKTNV-1">
          <mxGeometry x="174" y="770" width="100" height="40" as="geometry" />
        </mxCell>
        <mxCell id="65znSDPLtXBS6jXFIMLQ-152" style="edgeStyle=none;curved=1;rounded=0;orthogonalLoop=1;jettySize=auto;html=1;entryX=1;entryY=0.5;entryDx=0;entryDy=0;fontSize=12;startSize=8;endSize=8;" edge="1" parent="WIyWlLk6GJQsqaUBKTNV-1" source="65znSDPLtXBS6jXFIMLQ-151" target="65znSDPLtXBS6jXFIMLQ-3">
          <mxGeometry relative="1" as="geometry" />
        </mxCell>
        <mxCell id="65znSDPLtXBS6jXFIMLQ-151" value="Ano_letivo" style="ellipse;whiteSpace=wrap;html=1;" vertex="1" parent="WIyWlLk6GJQsqaUBKTNV-1">
          <mxGeometry x="280" y="790" width="90" height="50" as="geometry" />
        </mxCell>
        <mxCell id="65znSDPLtXBS6jXFIMLQ-154" style="edgeStyle=none;curved=1;rounded=0;orthogonalLoop=1;jettySize=auto;html=1;entryX=1;entryY=0.25;entryDx=0;entryDy=0;fontSize=12;startSize=8;endSize=8;" edge="1" parent="WIyWlLk6GJQsqaUBKTNV-1" source="65znSDPLtXBS6jXFIMLQ-153" target="65znSDPLtXBS6jXFIMLQ-3">
          <mxGeometry relative="1" as="geometry" />
        </mxCell>
        <mxCell id="65znSDPLtXBS6jXFIMLQ-153" value="Status A/R" style="ellipse;whiteSpace=wrap;html=1;" vertex="1" parent="WIyWlLk6GJQsqaUBKTNV-1">
          <mxGeometry x="340" y="730" width="80" height="40" as="geometry" />
        </mxCell>
        <mxCell id="65znSDPLtXBS6jXFIMLQ-156" style="edgeStyle=none;curved=1;rounded=0;orthogonalLoop=1;jettySize=auto;html=1;entryX=0;entryY=0;entryDx=0;entryDy=0;fontSize=12;startSize=8;endSize=8;" edge="1" parent="WIyWlLk6GJQsqaUBKTNV-1" source="65znSDPLtXBS6jXFIMLQ-155" target="65znSDPLtXBS6jXFIMLQ-8">
          <mxGeometry relative="1" as="geometry" />
        </mxCell>
        <mxCell id="65znSDPLtXBS6jXFIMLQ-155" value="ID_Turma(PK)" style="ellipse;whiteSpace=wrap;html=1;" vertex="1" parent="WIyWlLk6GJQsqaUBKTNV-1">
          <mxGeometry x="240" y="480" width="100" height="40" as="geometry" />
        </mxCell>
        <mxCell id="65znSDPLtXBS6jXFIMLQ-158" style="edgeStyle=none;curved=1;rounded=0;orthogonalLoop=1;jettySize=auto;html=1;entryX=0;entryY=0.5;entryDx=0;entryDy=0;fontSize=12;startSize=8;endSize=8;" edge="1" parent="WIyWlLk6GJQsqaUBKTNV-1" source="65znSDPLtXBS6jXFIMLQ-157" target="65znSDPLtXBS6jXFIMLQ-8">
          <mxGeometry relative="1" as="geometry" />
        </mxCell>
        <mxCell id="65znSDPLtXBS6jXFIMLQ-157" value="&lt;br&gt;&lt;span style=&quot;color: rgb(0, 0, 0); font-family: Helvetica; font-size: 12px; font-style: normal; font-variant-ligatures: normal; font-variant-caps: normal; font-weight: 400; letter-spacing: normal; orphans: 2; text-align: center; text-indent: 0px; text-transform: none; widows: 2; word-spacing: 0px; -webkit-text-stroke-width: 0px; white-space: normal; background-color: rgb(251, 251, 251); text-decoration-thickness: initial; text-decoration-style: initial; text-decoration-color: initial; display: inline !important; float: none;&quot;&gt;ID_Disciplina(FK)&lt;/span&gt;&lt;div&gt;&lt;br/&gt;&lt;/div&gt;" style="ellipse;whiteSpace=wrap;html=1;" vertex="1" parent="WIyWlLk6GJQsqaUBKTNV-1">
          <mxGeometry x="200" y="530" width="112" height="40" as="geometry" />
        </mxCell>
        <mxCell id="65znSDPLtXBS6jXFIMLQ-160" style="edgeStyle=none;curved=1;rounded=0;orthogonalLoop=1;jettySize=auto;html=1;entryX=0.25;entryY=1;entryDx=0;entryDy=0;fontSize=12;startSize=8;endSize=8;" edge="1" parent="WIyWlLk6GJQsqaUBKTNV-1" source="65znSDPLtXBS6jXFIMLQ-159" target="65znSDPLtXBS6jXFIMLQ-8">
          <mxGeometry relative="1" as="geometry" />
        </mxCell>
        <mxCell id="65znSDPLtXBS6jXFIMLQ-159" value="ID_Professor(FK)" style="ellipse;whiteSpace=wrap;html=1;" vertex="1" parent="WIyWlLk6GJQsqaUBKTNV-1">
          <mxGeometry x="260" y="600" width="110" height="50" as="geometry" />
        </mxCell>
        <mxCell id="65znSDPLtXBS6jXFIMLQ-162" style="edgeStyle=none;curved=1;rounded=0;orthogonalLoop=1;jettySize=auto;html=1;entryX=0.5;entryY=1;entryDx=0;entryDy=0;fontSize=12;startSize=8;endSize=8;" edge="1" parent="WIyWlLk6GJQsqaUBKTNV-1" source="65znSDPLtXBS6jXFIMLQ-161" target="65znSDPLtXBS6jXFIMLQ-8">
          <mxGeometry relative="1" as="geometry" />
        </mxCell>
        <mxCell id="65znSDPLtXBS6jXFIMLQ-161" value="Hosrario" style="ellipse;whiteSpace=wrap;html=1;" vertex="1" parent="WIyWlLk6GJQsqaUBKTNV-1">
          <mxGeometry x="340" y="660" width="80" height="40" as="geometry" />
        </mxCell>
        <mxCell id="65znSDPLtXBS6jXFIMLQ-164" style="edgeStyle=none;curved=1;rounded=0;orthogonalLoop=1;jettySize=auto;html=1;entryX=0.75;entryY=1;entryDx=0;entryDy=0;fontSize=12;startSize=8;endSize=8;" edge="1" parent="WIyWlLk6GJQsqaUBKTNV-1" source="65znSDPLtXBS6jXFIMLQ-163" target="65znSDPLtXBS6jXFIMLQ-8">
          <mxGeometry relative="1" as="geometry" />
        </mxCell>
        <mxCell id="65znSDPLtXBS6jXFIMLQ-163" value="Sala" style="ellipse;whiteSpace=wrap;html=1;" vertex="1" parent="WIyWlLk6GJQsqaUBKTNV-1">
          <mxGeometry x="420" y="630" width="60" height="40" as="geometry" />
        </mxCell>
        <mxCell id="65znSDPLtXBS6jXFIMLQ-166" style="edgeStyle=none;curved=1;rounded=0;orthogonalLoop=1;jettySize=auto;html=1;entryX=1;entryY=0.75;entryDx=0;entryDy=0;fontSize=12;startSize=8;endSize=8;" edge="1" parent="WIyWlLk6GJQsqaUBKTNV-1" source="65znSDPLtXBS6jXFIMLQ-165" target="65znSDPLtXBS6jXFIMLQ-8">
          <mxGeometry relative="1" as="geometry" />
        </mxCell>
        <mxCell id="65znSDPLtXBS6jXFIMLQ-165" value="Num_Matricula_Alunos" style="ellipse;whiteSpace=wrap;html=1;" vertex="1" parent="WIyWlLk6GJQsqaUBKTNV-1">
          <mxGeometry x="500" y="600" width="120" height="50" as="geometry" />
        </mxCell>
        <mxCell id="65znSDPLtXBS6jXFIMLQ-168" style="edgeStyle=none;curved=1;rounded=0;orthogonalLoop=1;jettySize=auto;html=1;entryX=0;entryY=1;entryDx=0;entryDy=0;fontSize=12;startSize=8;endSize=8;" edge="1" parent="WIyWlLk6GJQsqaUBKTNV-1" source="65znSDPLtXBS6jXFIMLQ-167" target="65znSDPLtXBS6jXFIMLQ-4">
          <mxGeometry relative="1" as="geometry" />
        </mxCell>
        <mxCell id="65znSDPLtXBS6jXFIMLQ-167" value="ID_Professor(PK)" style="ellipse;whiteSpace=wrap;html=1;" vertex="1" parent="WIyWlLk6GJQsqaUBKTNV-1">
          <mxGeometry x="520" y="440" width="110" height="50" as="geometry" />
        </mxCell>
        <mxCell id="65znSDPLtXBS6jXFIMLQ-170" style="edgeStyle=none;curved=1;rounded=0;orthogonalLoop=1;jettySize=auto;html=1;entryX=0.75;entryY=0;entryDx=0;entryDy=0;fontSize=12;startSize=8;endSize=8;" edge="1" parent="WIyWlLk6GJQsqaUBKTNV-1" source="65znSDPLtXBS6jXFIMLQ-169" target="65znSDPLtXBS6jXFIMLQ-4">
          <mxGeometry relative="1" as="geometry" />
        </mxCell>
        <mxCell id="65znSDPLtXBS6jXFIMLQ-169" value="Nome_Professor" style="ellipse;whiteSpace=wrap;html=1;" vertex="1" parent="WIyWlLk6GJQsqaUBKTNV-1">
          <mxGeometry x="720" y="220" width="120" height="50" as="geometry" />
        </mxCell>
        <mxCell id="65znSDPLtXBS6jXFIMLQ-172" style="edgeStyle=none;curved=1;rounded=0;orthogonalLoop=1;jettySize=auto;html=1;entryX=0;entryY=0.25;entryDx=0;entryDy=0;fontSize=12;startSize=8;endSize=8;" edge="1" parent="WIyWlLk6GJQsqaUBKTNV-1" source="65znSDPLtXBS6jXFIMLQ-171" target="65znSDPLtXBS6jXFIMLQ-4">
          <mxGeometry relative="1" as="geometry" />
        </mxCell>
        <mxCell id="65znSDPLtXBS6jXFIMLQ-171" value="E-Mail" style="ellipse;whiteSpace=wrap;html=1;" vertex="1" parent="WIyWlLk6GJQsqaUBKTNV-1">
          <mxGeometry x="510" y="380" width="70" height="40" as="geometry" />
        </mxCell>
        <mxCell id="65znSDPLtXBS6jXFIMLQ-174" style="edgeStyle=none;curved=1;rounded=0;orthogonalLoop=1;jettySize=auto;html=1;fontSize=12;startSize=8;endSize=8;" edge="1" parent="WIyWlLk6GJQsqaUBKTNV-1" source="65znSDPLtXBS6jXFIMLQ-173" target="65znSDPLtXBS6jXFIMLQ-4">
          <mxGeometry relative="1" as="geometry" />
        </mxCell>
        <mxCell id="65znSDPLtXBS6jXFIMLQ-173" value="Especializacao" style="ellipse;whiteSpace=wrap;html=1;" vertex="1" parent="WIyWlLk6GJQsqaUBKTNV-1">
          <mxGeometry x="735" y="450" width="110" height="50" as="geometry" />
        </mxCell>
        <mxCell id="65znSDPLtXBS6jXFIMLQ-176" style="edgeStyle=none;curved=1;rounded=0;orthogonalLoop=1;jettySize=auto;html=1;fontSize=12;startSize=8;endSize=8;" edge="1" parent="WIyWlLk6GJQsqaUBKTNV-1" source="65znSDPLtXBS6jXFIMLQ-175" target="65znSDPLtXBS6jXFIMLQ-4">
          <mxGeometry relative="1" as="geometry" />
        </mxCell>
        <mxCell id="65znSDPLtXBS6jXFIMLQ-175" value="ID_Departamento(FK)" style="ellipse;whiteSpace=wrap;html=1;" vertex="1" parent="WIyWlLk6GJQsqaUBKTNV-1">
          <mxGeometry x="770" y="280" width="140" height="60" as="geometry" />
        </mxCell>
      </root>
    </mxGraphModel>
  </diagram>
</mxfile>
